# xmcd CD database file
#
# Track frame offsets:
#	150
#	13923
#	24832
#	39556
#	51411
#	63422
#	73201
#	87100
#	98022
#	115404
#	128870
#	142060
#	156636
#	168778
#	180363
#	192454
#	207411
#	222734
#	237154
#	249158
#	258127
#	270055
#	281290
#	296248
#
# Disc length: 4117 seconds
#
# Revision: 0
# Processed by: cddbd v1.5.2PL0 Copyright (c) Steve Scherf et al.
# Submitted via: CDex 1.70beta2
#
DISCID=64101318
DTITLE=CARMEN McRAE - UNE ANTHOLOGIE 1954 - 1956
DYEAR=1900
DGENRE=Jazz
TTITLE0=SUPPER TIME
TTITLE1=EASY TO LOVE
TTITLE2=IF I'M LUCKY ( I'LL BE THE ONE)
TTITLE3=OLD DEVIL MOON
TTITLE4=TIP TOE GENTLY
TTITLE5=YOU MADE ME CARE
TTITLE6=THE LAST TIME  FOR LOVE
TTITLE7=TOO MUCH IN LOVE TO CARE
TTITLE8=MISERY
TTITLE9=A FINE ROMANCE
TTITLE10=I GO FOR YOU
TTITLE11=SOMETHING TO LIVE FOR
TTITLE12=JUST ONE OF THOSE THINGS
TTITLE13=SOMETIMES I'M HAPPY
TTITLE14=LOVE IS HERE TO STAY
TTITLE15=I CAN'T GET STARTED
TTITLE16=THIS WILL MAKE YOU LAUGH
TTITLE17=MY ONE AND ONLY LOVE
TTITLE18=I'LL REMEMBER APRIL
TTITLE19=YARDBIRD SUITE
TTITLE20=YOU TOOK ADVENTAGE OF ME
TTITLE21=COME DOWN TO EARTH , MR. SMITH
TTITLE22=MY FUTURE JUST PASSED
TTITLE23=IF YOU'D STAY THE WAY I DREAM ABOUT YOU
EXTD=
EXTT0=
EXTT1=
EXTT2=
EXTT3=
EXTT4=
EXTT5=
EXTT6=
EXTT7=
EXTT8=
EXTT9=
EXTT10=
EXTT11=
EXTT12=
EXTT13=
EXTT14=
EXTT15=
EXTT16=
EXTT17=
EXTT18=
EXTT19=
EXTT20=
EXTT21=
EXTT22=
EXTT23=
PLAYORDER=
